<?xml version="1.0" encoding="utf-8"?>
<!-- Generator: Adobe Illustrator 25.4.1, SVG Export Plug-In . SVG Version: 6.00 Build 0)  -->
<svg version="1.1" id="Layer_1" xmlns="http://www.w3.org/2000/svg" xmlns:xlink="http://www.w3.org/1999/xlink" x="0px" y="0px"
	 viewBox="0 0 348 104" style="enable-background:new 0 0 348 104;" xml:space="preserve">
<style type="text/css">
	.st0{fill:#D09E33;}
	.st1{fill:#309B4C;}
	.st2{fill:#FFFFFF;}
	.st3{fill:#FFCA06;}
	.st4{fill-rule:evenodd;clip-rule:evenodd;fill:#1A1A1A;}
	.st5{fill:#1A1A1A;}
	.st6{fill:none;stroke:#000000;stroke-width:0.5494;stroke-miterlimit:10;}
	.st7{fill:#353535;}
	.st8{fill:none;stroke:#303030;stroke-width:0.4517;stroke-miterlimit:10;}
	.st9{fill:url(#SVGID_1_);}
	.st10{fill:url(#SVGID_00000105396999901242370790000009668053537227841676_);}
	.st11{fill:url(#SVGID_00000161625891182349056380000001437345393555418777_);}
	.st12{fill:url(#SVGID_00000102511827131545258630000015651777699734825398_);}
	.st13{fill:url(#SVGID_00000133522152171967997430000013845511300397089197_);}
	.st14{fill:url(#SVGID_00000034803524307839006380000017996747361277532337_);}
	.st15{fill:url(#SVGID_00000067217222996402870320000014826341702856001418_);}
	.st16{fill:url(#SVGID_00000032630729089549182740000007563755334927997830_);}
	.st17{fill:url(#SVGID_00000080921379870750548150000016901951993767503270_);}
	.st18{fill:url(#SVGID_00000012445730028880225330000010168026146582631080_);}
	
		.st19{clip-path:url(#SVGID_00000087397672427069666860000017350387275791841418_);fill:url(#SVGID_00000172399039300285586210000011206356229907811228_);}
	
		.st20{clip-path:url(#SVGID_00000180352642541870528350000007829383256329053065_);fill:url(#SVGID_00000011733635528554058380000005918120930278183298_);}
</style>
<g>
	<path class="st0" d="M206.5-147.9c-4.2-3.4-6.1-8.9-6.6-14.2c-0.1-0.7-0.3-3.8,0.6-7.8l4.9,0.9c-0.2,0.7-0.7,3.6-0.5,7.2
		c0.1,1.3-0.1,2.6,0.1,3.9c0.3,2.8,1.5,5.7,3.2,8c0.5,0.5,0.6,1.3,0.2,1.7C208-147.5,207.1-147.4,206.5-147.9z"/>
	<path class="st0" d="M252.9-151.8c-1.8,1.9-3.9,2.4-6.2,1.5c-2.4-0.9-3.7-2.8-4.1-5.2c-0.4-2-0.1-3.9,1-5.6
		c1.7-2.8,5.3-3.6,8.4-1.9c0.3,0.1,0.5,0.3,0.8,0.4c0.1-2.3,0.1-3-0.4-5.2c-0.1-0.5-0.1-0.8,0.6-0.8c1.3,0,2.6-0.2,3.9-0.3
		c0.4-0.1,0.6,0.1,0.5,0.5c-0.4,4.2-0.2,7.1-0.3,11.3c0,2,0.1,3.9,0.3,5.9c0.1,0.6-0.1,0.8-0.7,0.8c-0.9-0.1-1.9-0.1-2.9,0
		c-0.7,0.1-0.9-0.2-0.8-0.8C252.9-151.3,252.9-151.4,252.9-151.8z M252.8-156.8c0-0.5-0.1-1.1-0.4-1.7c-0.5-1.1-1.3-1.7-2.5-1.8
		c-1.1-0.1-2,0.4-2.5,1.5c-0.7,1.6-0.6,3.1,0.4,4.5c1.1,1.5,3.3,1.4,4.3-0.2C252.6-155.3,252.8-156,252.8-156.8z"/>
	<path class="st0" d="M276.2-166.6c0,0.7,0.3,1.7-0.1,2c-0.4,0.4-1.3-0.1-2-0.2c-3.1-0.4-5.3,1.4-5.4,4.5c-0.1,1.4,0.2,2.7,0.9,3.8
		c1.1,1.7,2.8,2.4,4.8,2.3c0.4,0,0.8,0,1.1-0.1c0.8-0.3,0.8,0.2,0.8,0.7c-0.1,1,0,2,0,2.9c0,0.3,0,0.5-0.3,0.5
		c-2.7,0.4-5.2,0.4-7.6-1c-3-1.8-4.5-4.5-4.8-7.9c-0.2-2,0.1-4,1-5.8c1.3-2.6,3.6-3.7,6.3-4.1c1.6-0.3,3.1-0.2,4.7,0
		c0.4,0.1,0.7,0.2,0.6,0.7C276.2-167.7,276.2-167.1,276.2-166.6L276.2-166.6z"/>
	<path class="st0" d="M218.2-152.9c-0.5,0.7-0.8,1.3-1.3,1.7c-2,1.9-5.8,1.7-7.3-0.4c-1.4-2-0.6-4.9,1.7-6.2c1.8-1,3.8-1.3,5.9-1.1
		c0.6,0.1,0.7-0.1,0.5-0.7c-0.3-0.7-0.9-0.9-1.6-1c-1.7-0.2-3.3,0.1-4.9,0.5c-0.5,0.1-0.6,0.1-0.6-0.4c0.1-0.7,0-1.5,0-2.2
		c0-0.3,0-0.5,0.3-0.5c2.4-0.4,4.6-0.7,7-0.3c2.7,0.5,4.1,2,4.2,4.7c0.1,2.4-0.1,4.8,0.2,7.2c0.1,0.5,0.4,1,0.1,1.3
		c-0.3,0.2-0.9,0.1-1.4,0.1c-0.7,0-1.5,0-2.2,0c-0.4,0-0.6-0.1-0.6-0.5C218.4-151.4,218.3-152,218.2-152.9z M216.6-156.8
		c-1.1,0-2,0.4-2.6,1c-0.4,0.5-0.6,1-0.3,1.6c0.3,0.5,0.7,0.8,1.4,0.8c1.2,0.1,2.2-0.6,2.7-1.9C218.1-156.4,217.8-156.8,216.6-156.8
		z"/>
	<path class="st0" d="M292.4-157c0,3.9-2.5,6.7-6.4,7.1c-4,0.4-7.2-1.8-8-5.6c-0.9-4.2,1.8-7.9,6.1-8.3c1.1-0.1,2.3-0.1,3.4,0.3
		C290.6-162.6,292.4-160.2,292.4-157z M282.5-157.2c0,0.9,0.1,1.8,0.4,2.5c0.5,1,1.3,1.4,2.4,1.4c1,0,1.7-0.5,2.1-1.4
		c0.5-1.1,0.5-2.2,0.3-3.4c-0.3-1.5-1.2-2.2-2.6-2.1c-1.5,0.1-2.3,0.9-2.5,2.4C282.5-157.6,282.5-157.4,282.5-157.2z"/>
	<path class="st0" d="M229.8-161.3c1.3-1.4,2.6-2.3,4.4-2.5c3-0.3,4.8,1.2,5.3,4.1c0.2,0.9,0.2,1.8,0.2,2.7c0,2-0.1,4,0.1,6
		c0.1,0.5-0.1,0.6-0.6,0.6c-1.1-0.1-2.1-0.1-3.2,0c-0.5,0-0.7-0.2-0.7-0.6c0-1.9-0.1-3.8-0.1-5.7c0-0.6-0.1-1.3-0.1-1.9
		c-0.2-1.1-0.7-1.7-1.6-1.8c-1.1-0.2-2,0.2-2.6,1.1c-0.4,0.8-0.5,1.6-0.5,2.5c0,1.9,0,3.9,0.1,5.8c0.1,0.5-0.2,0.6-0.6,0.6
		c-1-0.1-2.1-0.1-3.1,0c-0.7,0.1-0.9-0.1-0.9-0.8c0.2-2.8,0.3-5.6,0-8.4c-0.1-1.1-0.3-2.2-0.5-3.2c-0.1-0.4,0.1-0.5,0.4-0.5
		c1.1-0.1,2.1-0.1,3.2-0.2c0.3,0,0.5,0.1,0.5,0.4C229.6-162.5,229.7-162,229.8-161.3z"/>
	<path class="st0" d="M316.4-156c-1.2,0-2.4,0-3.6,0c-0.7,0-0.7,0.2-0.4,0.7c0.7,1.3,1.9,1.7,3.3,1.9c1.1,0.1,2.2-0.2,3.3-0.4
		c0.4-0.1,0.6-0.1,0.6,0.4c-0.1,0.9,0,1.8,0,2.7c0,0.3,0,0.4-0.3,0.5c-2.4,0.5-4.6,0.6-7-0.2c-4.3-1.5-5.6-5.7-4.9-8.7
		c0.6-2.5,2.7-4.2,5.4-4.6c1.6-0.2,3.2-0.1,4.7,0.6c1.8,0.9,2.6,2.5,2.9,4.3c0.2,0.8,0.2,1.6,0.2,2.4c0,0.4-0.1,0.5-0.5,0.5
		C318.8-156,317.6-156,316.4-156L316.4-156z M314.3-158.3c0.6,0,1.2-0.1,1.8,0c0.5,0.1,0.6-0.1,0.5-0.6c-0.2-1.2-1.1-1.9-2.4-1.9
		c-1.2,0.1-2.2,0.9-2.3,2c-0.1,0.3,0.1,0.4,0.4,0.4C313-158.3,313.7-158.3,314.3-158.3z"/>
	<path class="st0" d="M307.5-163.5c-0.8,2-1.6,4-2.3,6c-0.8,2.2-1.7,4.4-2.2,6.8c-0.1,0.4-0.3,0.5-0.7,0.5c-1.4,0.1-2.8,0.2-4.1,0.4
		c-0.4,0.1-0.6-0.1-0.7-0.5c-1-4.3-2.7-8.3-4.5-12.2c-0.3-0.6-0.3-0.7,0.4-0.7c1.2,0,2.4-0.1,3.6-0.2c0.5-0.1,0.7,0.1,0.8,0.6
		c0.9,2.7,1.7,5.3,2.2,8.1c0,0.1,0,0.3,0.2,0.3c0.7-2.7,1.5-5.4,2.2-8c0.2-0.5,0.4-0.7,0.9-0.7C304.7-163.3,306.1-163.4,307.5-163.5
		z"/>
	<path class="st0" d="M180.3-158.9c-0.1-3,0.2-6.2-0.2-9.3c-0.1-0.4,0.1-0.4,0.4-0.4c1.6,0,3.2,0,4.9,0c0.3,0,0.4,0,0.4,0.4
		c-0.4,5.8-0.4,11.5,0.3,17.3c0.1,0.6-0.1,0.7-0.6,0.7c-1.5-0.1-3.1,0-4.6,0c-0.4,0-0.6-0.1-0.5-0.6
		C180.4-153.5,180.3-156.1,180.3-158.9z"/>
	<path class="st0" d="M188.5-152.2c0-0.4,0-0.8,0-1.3c-0.1-0.4,0.1-0.5,0.5-0.4c1.3,0.4,2.5,0.7,3.8,0.6c0.6,0,1.3,0.1,1.4-0.6
		c0.2-0.6-0.6-0.8-1-1c-0.9-0.5-1.9-0.8-2.8-1.5c-1.6-1.1-2.3-2.8-1.9-4.3c0.4-1.5,1.8-2.7,3.6-3c1.6-0.3,3.2-0.1,4.8,0.2
		c0.3,0.1,0.3,0.2,0.3,0.4c0,0.7,0,1.4,0,2c0,0.4-0.2,0.4-0.5,0.4c-0.7-0.2-1.5-0.3-2.2-0.3c-0.3,0-0.6,0-0.9,0.2
		c-0.4,0.2-0.6,0.3-0.7,0.7c-0.1,0.4,0.3,0.6,0.5,0.7c0.9,0.5,1.8,1,2.7,1.5c1.1,0.6,2.1,1.5,2.5,2.8c0.5,1.7-0.2,3.3-1.7,4.3
		s-3.2,1-5,0.9c-0.9-0.1-1.8-0.3-2.8-0.5c-0.4-0.1-0.6-0.2-0.6-0.7C188.6-151.4,188.5-151.8,188.5-152.2L188.5-152.2z"/>
	<path class="st1" d="M183.6-170.1c-1.3-0.1-2.4-0.4-2.8-1.8c-0.4-1.1,0.1-2.2,1.1-2.9c0.9-0.5,2.2-0.4,2.9,0.4
		c0.2,0.2,0.2,0.4,0.4,0.4C186-171.9,185.5-171,183.6-170.1z"/>
</g>
<g>
	<g>
		<path class="st2" d="M-252.5-65.6c-1.6,0-2.8-0.2-3.7-0.6c-0.9-0.4-1.5-1.2-1.8-2.3s-0.5-2.9-0.5-5.1V-110h6v36.3
			c0,2,0.3,3.6,0.8,4.9c0.6,1.2,1.8,1.8,3.9,1.8h1.3v1.3H-252.5z"/>
		<path class="st2" d="M-226.4-64.5c-1.8,0-3.6-0.2-5.4-0.6c-1.8-0.4-3.5-0.9-5-1.6c-1.5-0.7-2.7-1.6-3.6-2.6
			c-0.9-1-1.3-2.1-1.3-3.4v-7.2h1.2c0.8,4.5,2.2,7.8,4.5,9.7s5.2,3,9,3c1.5,0,3-0.3,4.3-0.8c1.3-0.5,2.4-1.3,3.3-2.3
			c0.8-1,1.2-2.3,1.2-3.8c0-2-0.6-3.6-1.8-5c-1.2-1.4-3.1-2.8-5.5-4.2l-8.3-4.9c-2.9-1.7-4.9-3.4-6.1-5.2c-1.2-1.7-1.8-3.9-1.8-6.4
			c0-3.4,1.2-6.2,3.6-8.3c2.4-2.1,5.5-3.1,9.4-3.1c1.7,0,3.3,0.2,5,0.5c1.7,0.4,3.3,0.9,4.7,1.6c1.4,0.7,2.6,1.5,3.5,2.5
			c0.9,1,1.3,2.1,1.3,3.4v7.2h-1.2c-0.8-4.5-2.2-7.7-4.4-9.7c-2.1-1.9-5.1-2.9-8.9-2.9c-1.3,0-2.6,0.3-3.8,0.8
			c-1.2,0.6-2.2,1.3-2.9,2.3c-0.7,1-1.1,2.2-1.1,3.6c0,1.9,0.6,3.5,1.9,4.8c1.3,1.3,3.1,2.6,5.6,4l8.3,4.9c2.9,1.7,5,3.3,6.3,4.9
			s2,3.6,2,6.1c0,3.8-1.3,6.8-3.8,9C-218.7-65.6-222.1-64.5-226.4-64.5z"/>
		<path class="st2" d="M-202.4-65.6v-36.3c0-2-0.3-3.6-0.8-4.9c-0.6-1.2-1.8-1.8-3.9-1.8h-1.3v-1.3h6c1.6,0,2.8,0.2,3.7,0.6
			c0.9,0.4,1.5,1.2,1.8,2.4s0.5,2.9,0.5,5.1v33.6h23.8v2.7H-202.4z"/>
		<path class="st2" d="M-130.3-65.3c-1,0-2.2-0.2-3.6-0.6s-2.8-1.2-4.2-2.4c-1.4-1.2-2.6-3.1-3.6-5.7l-1.7-4.4h-18.8l-5.4,12.8h-3
			l18.8-44.3h2L-135-74c1.1,2.5,2.1,4.3,3.1,5.3c1,1,2.4,1.6,4.3,1.8v1.3c-0.4,0.1-0.8,0.2-1.2,0.2
			C-129.3-65.3-129.8-65.3-130.3-65.3z M-161.2-81.1h16.5l-8.1-19.5L-161.2-81.1z"/>
		<path class="st2" d="M-90.5-65l-28.9-35.9v35.3h-2.7v-36.3c0-2-0.4-3.6-1.3-4.9c-0.9-1.2-2.4-1.8-4.8-1.8h-0.7v-1.3h4.4
			c2.2,0,4,0.4,5.4,1.1s2.6,1.7,3.7,3l23.5,29.2V-110h2.7v45H-90.5z"/>
		<path class="st2" d="M-76.3-65.6v-36.3c0-2-0.3-3.6-0.8-4.9c-0.6-1.2-1.8-1.8-3.9-1.8h-1.3v-1.3h17.6c8.9,0,15.5,2,19.8,5.9
			c4.4,3.9,6.5,9.3,6.5,16c0,4.3-0.9,8.2-2.8,11.6c-1.9,3.4-4.6,6-8.3,8c-3.6,1.9-8.2,2.9-13.6,2.9H-76.3z M-63.2-68
			c3.3,0,6.3-0.8,8.9-2.4c2.6-1.6,4.7-3.9,6.3-6.9c1.5-3,2.3-6.5,2.3-10.5c0-4-0.8-7.5-2.3-10.4c-1.5-3-3.6-5.3-6.2-6.9
			c-2.6-1.7-5.7-2.5-9.1-2.5c-1,0-2,0.1-3.2,0.3c-1.1,0.2-2.3,0.4-3.5,0.8v37.7c0.9,0.2,1.7,0.3,2.5,0.5c0.8,0.1,1.5,0.2,2.3,0.3
			C-64.6-68-63.9-68-63.2-68z"/>
	</g>
</g>
<g>
	<g>
		<path class="st2" d="M-213.1-5.6c-4.3,0-7.9-1-11-3.1c-3.1-2-5.5-4.8-7.2-8.3c-1.7-3.5-2.6-7.3-2.6-11.5c0-3.4,0.5-6.5,1.6-9.4
			c1.1-2.9,2.6-5.5,4.5-7.7c1.9-2.2,4.1-3.9,6.6-5.2c2.5-1.3,5.2-1.9,8.1-1.9c3.7,0,6.9,0.5,9.6,1.6c2.7,1.1,4.6,2.3,5.8,3.8
			c0.8,1,1.3,2.5,1.5,4.3c0.1,1.8,0.2,3.8,0.2,5.8h-1.3c-0.9-4.4-2.4-7.6-4.7-9.7c-2.3-2.1-5.3-3.1-9-3.1c-2.9,0-5.6,0.7-8.1,2
			c-2.5,1.3-4.4,3.6-5.9,6.7c-1.5,3.1-2.2,7.4-2.2,12.8c0,2.5,0.3,5,0.9,7.4c0.6,2.4,1.6,4.6,2.9,6.5c1.3,1.9,3,3.5,5,4.6
			c2,1.1,4.5,1.7,7.4,1.7c3.4,0,6.2-0.8,8.7-2.4c2.4-1.6,4.6-3.9,6.4-7l1.3,1c-2.1,4.2-4.8,7.1-7.9,8.7S-209.1-5.6-213.1-5.6z"/>
		<path class="st2" d="M-168.3-5.6c-4.3,0-7.9-1-11-3.1c-3.1-2.1-5.5-4.9-7.2-8.5c-1.7-3.6-2.6-7.5-2.6-11.9c0-4.4,0.8-8.4,2.6-11.9
			c1.7-3.6,4.1-6.4,7.2-8.5c3.1-2.1,6.8-3.1,11-3.1c4.3,0,7.9,1,11,3.1c3.1,2.1,5.5,4.9,7.2,8.5c1.7,3.6,2.6,7.5,2.6,11.9
			c0,4.4-0.9,8.4-2.6,11.9c-1.7,3.6-4.1,6.4-7.2,8.5C-160.4-6.7-164.1-5.6-168.3-5.6z M-168.3-8.3c3,0,5.5-0.9,7.6-2.6
			c2.1-1.7,3.7-4.1,4.8-7.2c1.1-3.1,1.7-6.8,1.7-11c0-4.3-0.6-7.9-1.7-11c-1.1-3.1-2.7-5.5-4.8-7.2c-2.1-1.7-4.6-2.6-7.6-2.6
			c-2.9,0-5.4,0.9-7.6,2.6s-3.7,4.1-4.9,7.2c-1.1,3.1-1.7,6.8-1.7,11c0,4.3,0.6,7.9,1.7,11c1.1,3.1,2.7,5.5,4.9,7.2
			S-171.2-8.3-168.3-8.3z"/>
		<path class="st2" d="M-124.5-6.3l-15.6-37.1c-1.1-2.5-2.1-4.3-3.1-5.3c-1-1-2.4-1.6-4.3-1.8v-1.3c0.2,0,0.5,0,1-0.1
			c0.5,0,0.9-0.1,1.2-0.1c1.1,0,2.4,0.2,3.8,0.5c1.4,0.4,2.8,1.1,4.2,2.4c1.4,1.2,2.7,3.1,3.7,5.6l11.5,27.1l14.8-34.9h3.2l-19.3,45
			H-124.5z"/>
		<path class="st2" d="M-95.4-7v-36.3c0-2-0.3-3.6-0.8-4.9c-0.6-1.2-1.8-1.8-3.9-1.8h-1.3v-1.3h28.6c1.6,0,2.8,0.3,3.6,0.8
			s1.4,1.2,1.7,2c0.3,0.8,0.5,1.7,0.5,2.6v5h-1.3c0-2.7-0.7-4.6-2.2-5.9c-1.5-1.2-3.5-1.8-6.2-1.8h-12.5v17.5h18.1v2.7h-18.1v18.8
			h11.8c3,0,5.4-0.6,7.2-1.7s3.2-3,4.2-5.7l1.3,0.3l-2.4,6.4c-0.4,1-1,1.8-1.8,2.5C-69.8-7.3-70.9-7-72.2-7H-95.4z"/>
	</g>
</g>
<g>
	<rect x="202.3" y="8.6" width="0.3" height="86.8"/>
	<g>
		<g>
			<rect x="8.1" y="22.3" class="st3" width="168.1" height="42.3"/>
			<g>
				<path class="st4" d="M33.4,55.8l6.2-10.7h-4.2l2.1-3.5h9.8l-2.1,3.5h-3.5L35.4,56c17.6-0.4,16-26.7-1.5-25.2l-6.2,10.7h7.7
					l-2,3.6h-9.9l7.9-13.8C19.1,35.2,20.5,54.1,33.4,55.8 M35.4,29c19,0.3,18.9,28.5,0,28.8C16.5,57.5,16.5,29.4,35.4,29L35.4,29z"
					/>
				<path class="st5" d="M152.2,38.4l1.9,11c-0.8,1.4-2.1,2.4-3.5,1.6l-0.5,2.1c2.4,0.9,5.2-0.2,6.2-2.6l7.1-12.2h-3l-4.3,7.8l0,0
					l-1-7.8L152.2,38.4z M143.9,40.4h2c-0.9,3.6-2.7,10.3,3.5,8.6l0.4-2.2c-4.3,1.8-1.4-4.7-1.2-6.5h2.4l0.4-2h-2.4l0.7-3.1l-3,0.9
					l-0.4,2.2h-2L143.9,40.4z M137.6,48.8h2.7l3.2-15.4h-2.6L137.6,48.8z M128.8,46c0.1-2.2,3-2,4.5-2
					C133.4,46.2,129.8,48.7,128.8,46z M132.6,48.8h2.3c1.5-6.5,3-13.1-6.5-10.2l-0.3,2.2c1.8-0.9,6.3-1.8,5.5,1.5
					c-11.5-1.6-7.9,11.6-0.8,4.9l0,0L132.6,48.8z M118,42.6c0.3-2.9,5.4-3.6,4.7,0H118z M125,44.5c2-5.1-3.7-8.4-7.7-5.1
					c-5.5,4.9-0.7,12.1,6,9.1l0.3-2.2c-2.1,1-6.3,1.5-6.2-1.9H125z M107.7,36.8c5.9-0.7,4.1,4.6-0.8,3.7L107.7,36.8z M102.3,48.8
					h2.9l1.2-5.9c0.8,0,2.1-0.2,2.4,0.7c0.3,1.1,0.9,4.1,1.1,5.2h3c-0.7-1.2-0.7-7.1-2.9-7.1l0,0c3.4,0.3,5.8-4.4,3-6.5
					c-2.2-1.1-5.4-0.5-7.8-0.7L102.3,48.8z M85.6,36.8h4.1L87,48.9h3l2.6-12h4.1l0.4-2.3h-11L85.6,36.8z M80.9,37.6
					c0,1.4-1.4,2-2.5,2.3C75.9,37.6,79.9,34.5,80.9,37.6z M79.7,46.3c-3.6,2.6-7.5-2.3-2.5-3.7L79.7,46.3z M81.4,48.8h3.1l-1.6-2.4
					c1.4-1.5,2.3-3.3,2.4-5.4h-2.5c-0.1,1.2-0.4,2.4-1.2,3.4l-2.1-3c4-0.7,5.4-6.2,0.9-7.1c-3.6-1.1-7.1,3.1-4.4,6.2
					c-8.6,3.1-1.6,11.8,4.9,7.4L81.4,48.8z M62.2,48.8h8.6l0.4-2.3h-5.6l2.6-12.1h-3L62.2,48.8z"/>
			</g>
		</g>
		<g>
			<g>
				<path d="M40.7,73v8.5h-1.1v-6.3l-2.7,6.3H36l-2.9-6.3v6.3h-1.1V73h1.2l3.1,6.9l3.1-6.9H40.7z"/>
				<path d="M47.6,79.6h-3.7l-0.7,1.9H42L45,73h1.3l3.1,8.5h-1.2L47.6,79.6z M47.2,78.6l-1.5-4.3l-1.5,4.3H47.2z"/>
				<path d="M55.3,81.4l-2.1-3.5h-1.3v3.5h-1.1V73h2.7c0.7,0,1.2,0.1,1.6,0.3s0.8,0.5,1,0.9s0.3,0.8,0.3,1.3c0,0.5-0.2,1.1-0.5,1.5
					s-0.9,0.8-1.5,0.9l2.1,3.5H55.3z M51.9,77.1h1.6c0.5,0,1.1-0.1,1.3-0.4c0.3-0.3,0.4-0.7,0.4-1.2s-0.1-0.9-0.4-1.2
					c-0.3-0.3-0.8-0.4-1.3-0.4h-1.6V77.1z"/>
				<path d="M62.7,81.4l-3.5-3.8v3.8h-1.1V73h1.1v4l3.5-4h1.4l-3.8,4.2l3.8,4.2L62.7,81.4L62.7,81.4z"/>
				<path d="M66.6,73.9v2.9h3.1v0.9h-3.1v3H70v0.9h-4.5V73H70v0.9H66.6z"/>
				<path d="M76.9,73v0.9h-2.3v7.6h-1.1v-7.6h-2.3V73H76.9z"/>
				<path d="M79.3,73v8.5h-1.1V73H79.3z"/>
				<path d="M87.9,81.4h-1.1l-4.4-6.7v6.7h-1.1V73h1.1l4.4,6.7V73h1.1V81.4z"/>
				<path d="M96.2,75.4c-0.2-0.4-0.5-0.9-1-1.1c-0.4-0.2-1-0.4-1.5-0.4s-1.1,0.1-1.6,0.4c-0.4,0.2-0.9,0.7-1.1,1.2
					c-0.2,0.5-0.4,1-0.4,1.6s0.1,1.2,0.4,1.8c0.2,0.5,0.7,0.9,1.1,1.2c0.4,0.2,1,0.4,1.6,0.4c0.9,0,1.5-0.2,2.1-0.8
					c0.5-0.4,0.9-1.2,1-2h-3.4v-0.9h4.5v0.9c-0.1,0.7-0.3,1.3-0.7,1.9c-0.3,0.5-0.9,1-1.4,1.4c-0.7,0.3-1.3,0.5-2,0.5
					c-0.8,0-1.5-0.2-2.2-0.5c-0.7-0.3-1.2-0.9-1.5-1.5c-0.3-0.7-0.5-1.4-0.5-2.2c0-0.9,0.2-1.5,0.5-2.2c0.3-0.7,0.9-1.2,1.5-1.5
					c0.7-0.3,1.3-0.5,2.2-0.5s1.6,0.2,2.4,0.7c0.7,0.4,1.2,1.1,1.5,1.9h-1.5V75.4z"/>
				<path d="M107.5,77.2c-0.4,0.4-1.2,0.7-2.2,0.7h-1.6v3.5h-1.1v-8.5h2.7c1,0,1.6,0.2,2.2,0.7c0.5,0.4,0.8,1.1,0.8,1.8
					C108.1,76.2,107.9,76.7,107.5,77.2z M106.6,76.6c0.3-0.2,0.4-0.7,0.4-1.1c0-1.1-0.5-1.5-1.8-1.5h-1.6v3.1h1.6
					C105.8,76.9,106.2,76.8,106.6,76.6z"/>
				<path d="M114.5,79.6h-3.7l-0.7,1.9h-1.2L112,73h1.3l3.1,8.5h-1.2L114.5,79.6z M114.2,78.6l-1.5-4.3l-1.5,4.3H114.2z"/>
				<path d="M122.2,81.4l-2-3.5h-1.3v3.5h-1.1V73h2.7c0.7,0,1.2,0.1,1.6,0.3s0.8,0.5,1,0.9s0.3,0.8,0.3,1.3s-0.2,1.1-0.5,1.5
					c-0.3,0.4-0.9,0.8-1.5,0.9l2.1,3.5C123.5,81.4,122.2,81.4,122.2,81.4z M118.8,77.1h1.6c0.5,0,1.1-0.1,1.3-0.4
					c0.3-0.3,0.4-0.7,0.4-1.2s-0.1-0.9-0.4-1.2c-0.3-0.3-0.8-0.4-1.3-0.4h-1.6V77.1z"/>
				<path d="M130.3,73v0.9H128v7.6h-1.1v-7.6h-2.3V73H130.3z"/>
				<path d="M138.3,81.4h-1.1l-4.4-6.7v6.7h-1.1V73h1.1l4.4,6.7V73h1.1V81.4z"/>
				<path d="M141.3,73.9v2.9h3.1v0.9h-3.1v3h3.4v0.9h-4.5V73h4.5v0.9H141.3z"/>
				<path d="M151,81.4l-2-3.5h-1.3v3.5h-1.1V73h2.7c0.7,0,1.2,0.1,1.6,0.3c0.4,0.2,0.8,0.5,1,0.9s0.3,0.8,0.3,1.3s-0.2,1.1-0.5,1.5
					s-0.9,0.8-1.5,0.9l2.1,3.5C152.3,81.4,151,81.4,151,81.4z M147.6,77.1h1.6c0.5,0,1.1-0.1,1.3-0.4c0.3-0.3,0.4-0.7,0.4-1.2
					s-0.1-0.9-0.4-1.2c-0.3-0.3-0.8-0.4-1.3-0.4h-1.6V77.1z"/>
			</g>
			<line class="st6" x1="8.1" y1="77.8" x2="26.8" y2="77.8"/>
			<line class="st6" x1="157.6" y1="77.8" x2="176.2" y2="77.8"/>
		</g>
	</g>
	<g>
		<g>
			<path class="st7" d="M244.8,91.3V77.9h2.6l5.7,9.4h-1.4l5.6-9.4h2.5v13.3h-3v-9h0.5l-4.5,7.5h-1.4l-4.6-7.5h0.6v9L244.8,91.3
				L244.8,91.3z"/>
			<path class="st7" d="M263.6,91.3l5.9-13.3h3.1l6,13.3h-3.2l-5-11.8h1.2l-5,11.8H263.6z M266.5,88.4l0.8-2.3h7l0.8,2.3H266.5z"/>
			<path class="st7" d="M285.3,91.3h-3.1V77.9h3.1V91.3z M291.6,85.8h-6.5v-2.5h6.5V85.8z M291.4,77.9h3.1v13.3h-3.1V77.9z"/>
			<path class="st7" d="M300,91.3V77.9h3.1v13.3L300,91.3L300,91.3z"/>
			<path class="st7" d="M308.5,91.3V77.9h2.6l5.7,9.4h-1.4l5.6-9.4h2.5v13.3h-3v-9h0.5l-4.5,7.5h-1.4l-4.6-7.5h0.6v9L308.5,91.3
				L308.5,91.3z"/>
		</g>
		<line class="st8" x1="229.9" y1="72" x2="338.5" y2="72"/>
		<g>
			<g>
				<linearGradient id="SVGID_1_" gradientUnits="userSpaceOnUse" x1="231.5851" y1="7.7302" x2="231.5851" y2="67.1418">
					<stop  offset="0" style="stop-color:#5A99A3"/>
					<stop  offset="0.1713" style="stop-color:#4C8E99"/>
					<stop  offset="0.4085" style="stop-color:#3F848F"/>
					<stop  offset="0.6327" style="stop-color:#3B818C"/>
					<stop  offset="1" style="stop-color:#3B818C"/>
				</linearGradient>
				<path class="st9" d="M231.6,35.7c-0.8,0-1.4-0.1-1.9-0.3c-0.4-0.2-0.8-0.6-0.9-1.2s-0.3-1.4-0.3-2.6V13.3h3.1v18.3
					c0,1,0.1,1.8,0.4,2.5c0.3,0.6,0.9,0.9,2,0.9h0.7v0.7H231.6z"/>
				
					<linearGradient id="SVGID_00000044138313059268070070000003241342399642971314_" gradientUnits="userSpaceOnUse" x1="244.4243" y1="7.7302" x2="244.4243" y2="67.1418">
					<stop  offset="0" style="stop-color:#5A99A3"/>
					<stop  offset="0.1713" style="stop-color:#4C8E99"/>
					<stop  offset="0.4085" style="stop-color:#3F848F"/>
					<stop  offset="0.6327" style="stop-color:#3B818C"/>
					<stop  offset="1" style="stop-color:#3B818C"/>
				</linearGradient>
				<path style="fill:url(#SVGID_00000044138313059268070070000003241342399642971314_);" d="M244.8,36.3c-0.9,0-1.8-0.1-2.7-0.3
					c-0.9-0.2-1.8-0.5-2.5-0.8c-0.8-0.4-1.4-0.8-1.8-1.3c-0.5-0.5-0.7-1.1-0.7-1.7v-3.6h0.6c0.4,2.3,1.1,3.9,2.3,4.9
					c1.1,1,2.6,1.5,4.6,1.5c0.8,0,1.5-0.1,2.2-0.4c0.7-0.3,1.2-0.7,1.6-1.2c0.4-0.5,0.6-1.2,0.6-1.9c0-1-0.3-1.8-0.9-2.5
					c-0.6-0.7-1.6-1.4-2.8-2.1l-4.2-2.5c-1.4-0.9-2.5-1.7-3.1-2.6c-0.6-0.9-0.9-2-0.9-3.2c0-1.7,0.6-3.1,1.8-4.2
					c1.2-1.1,2.8-1.6,4.8-1.6c0.8,0,1.7,0.1,2.5,0.3c0.9,0.2,1.7,0.4,2.4,0.8c0.7,0.4,1.3,0.8,1.7,1.3c0.4,0.5,0.7,1.1,0.7,1.7v3.6
					h-0.6c-0.4-2.3-1.1-3.9-2.2-4.9c-1.1-1-2.6-1.5-4.5-1.5c-0.7,0-1.3,0.1-1.9,0.4c-0.6,0.3-1.1,0.7-1.5,1.2
					c-0.4,0.5-0.6,1.1-0.6,1.8c0,1,0.3,1.8,1,2.4c0.6,0.6,1.6,1.3,2.8,2l4.2,2.5c1.4,0.9,2.5,1.7,3.2,2.5s1,1.8,1,3.1
					c0,1.9-0.6,3.4-1.9,4.6C248.7,35.7,246.9,36.3,244.8,36.3z"/>
				
					<linearGradient id="SVGID_00000137123822986611672480000007506981183321775745_" gradientUnits="userSpaceOnUse" x1="262.9191" y1="7.7302" x2="262.9191" y2="67.1418">
					<stop  offset="0" style="stop-color:#5A99A3"/>
					<stop  offset="0.1713" style="stop-color:#4C8E99"/>
					<stop  offset="0.4085" style="stop-color:#3F848F"/>
					<stop  offset="0.6327" style="stop-color:#3B818C"/>
					<stop  offset="1" style="stop-color:#3B818C"/>
				</linearGradient>
				<path style="fill:url(#SVGID_00000137123822986611672480000007506981183321775745_);" d="M256.9,35.7V17.4c0-1-0.1-1.8-0.4-2.5
					c-0.3-0.6-0.9-0.9-2-0.9h-0.7v-0.7h3.1c0.8,0,1.4,0.1,1.9,0.3c0.4,0.2,0.8,0.6,0.9,1.2c0.2,0.6,0.3,1.4,0.3,2.6v17H272v1.4
					H256.9z"/>
				
					<linearGradient id="SVGID_00000048494246008649295620000017950506529672794790_" gradientUnits="userSpaceOnUse" x1="283.8597" y1="7.7302" x2="283.8597" y2="67.1418">
					<stop  offset="0" style="stop-color:#5A99A3"/>
					<stop  offset="0.1713" style="stop-color:#4C8E99"/>
					<stop  offset="0.4085" style="stop-color:#3F848F"/>
					<stop  offset="0.6327" style="stop-color:#3B818C"/>
					<stop  offset="1" style="stop-color:#3B818C"/>
				</linearGradient>
				<path style="fill:url(#SVGID_00000048494246008649295620000017950506529672794790_);" d="M293.4,35.9c-0.5,0-1.1-0.1-1.8-0.3
					c-0.7-0.2-1.4-0.6-2.1-1.2c-0.7-0.6-1.3-1.6-1.8-2.9l-0.8-2.2h-9.5l-2.7,6.5H273l9.5-22.4h1l7.5,18.2c0.5,1.3,1.1,2.2,1.6,2.7
					c0.5,0.5,1.2,0.8,2.2,0.9v0.7c-0.2,0-0.4,0.1-0.6,0.1C293.9,35.9,293.6,35.9,293.4,35.9z M277.7,27.9h8.3l-4.1-9.9L277.7,27.9z"
					/>
				
					<linearGradient id="SVGID_00000025429601997737246840000008515621386912592295_" gradientUnits="userSpaceOnUse" x1="304.1722" y1="7.7302" x2="304.1722" y2="67.1418">
					<stop  offset="0" style="stop-color:#5A99A3"/>
					<stop  offset="0.1713" style="stop-color:#4C8E99"/>
					<stop  offset="0.4085" style="stop-color:#3F848F"/>
					<stop  offset="0.6327" style="stop-color:#3B818C"/>
					<stop  offset="1" style="stop-color:#3B818C"/>
				</linearGradient>
				<path style="fill:url(#SVGID_00000025429601997737246840000008515621386912592295_);" d="M313.5,36.1l-14.6-18.2v17.8h-1.4V17.4
					c0-1-0.2-1.8-0.6-2.5c-0.4-0.6-1.2-0.9-2.4-0.9h-0.3v-0.7h2.2c1.1,0,2,0.2,2.7,0.5c0.7,0.4,1.3,0.9,1.9,1.5l11.9,14.8V13.3h1.4
					v22.8H313.5z"/>
				
					<linearGradient id="SVGID_00000031183904375252844780000014402025653966269852_" gradientUnits="userSpaceOnUse" x1="328.747" y1="7.7302" x2="328.747" y2="67.1418">
					<stop  offset="0" style="stop-color:#5A99A3"/>
					<stop  offset="0.1713" style="stop-color:#4C8E99"/>
					<stop  offset="0.4085" style="stop-color:#3F848F"/>
					<stop  offset="0.6327" style="stop-color:#3B818C"/>
					<stop  offset="1" style="stop-color:#3B818C"/>
				</linearGradient>
				<path style="fill:url(#SVGID_00000031183904375252844780000014402025653966269852_);" d="M320.7,35.7V17.4c0-1-0.1-1.8-0.4-2.5
					c-0.3-0.6-0.9-0.9-2-0.9h-0.7v-0.7h8.9c4.5,0,7.8,1,10,3c2.2,2,3.3,4.7,3.3,8.1c0,2.2-0.5,4.2-1.4,5.9c-0.9,1.7-2.3,3.1-4.2,4
					c-1.8,1-4.1,1.5-6.9,1.5H320.7z M327.3,34.5c1.7,0,3.2-0.4,4.5-1.2c1.3-0.8,2.4-2,3.2-3.5c0.8-1.5,1.2-3.3,1.2-5.3
					c0-2-0.4-3.8-1.2-5.3c-0.8-1.5-1.8-2.7-3.2-3.5c-1.3-0.8-2.9-1.3-4.6-1.3c-0.5,0-1,0-1.6,0.1c-0.6,0.1-1.2,0.2-1.8,0.4v19.1
					c0.5,0.1,0.9,0.2,1.3,0.2c0.4,0.1,0.8,0.1,1.2,0.2C326.6,34.5,327,34.5,327.3,34.5z"/>
			</g>
			<g>
				
					<linearGradient id="SVGID_00000125596640471425235320000001535018315783614627_" gradientUnits="userSpaceOnUse" x1="250.8952" y1="7.7302" x2="250.8952" y2="67.1418">
					<stop  offset="0" style="stop-color:#5A99A3"/>
					<stop  offset="0.1713" style="stop-color:#4C8E99"/>
					<stop  offset="0.4085" style="stop-color:#3F848F"/>
					<stop  offset="0.6327" style="stop-color:#3B818C"/>
					<stop  offset="1" style="stop-color:#3B818C"/>
				</linearGradient>
				<path style="fill:url(#SVGID_00000125596640471425235320000001535018315783614627_);" d="M251.5,66.1c-2.2,0-4-0.5-5.6-1.5
					c-1.6-1-2.8-2.4-3.7-4.2c-0.9-1.8-1.3-3.7-1.3-5.8c0-1.7,0.3-3.3,0.8-4.8c0.5-1.5,1.3-2.8,2.3-3.9c1-1.1,2.1-2,3.4-2.6
					c1.3-0.6,2.6-1,4.1-1c1.9,0,3.5,0.3,4.9,0.8c1.4,0.5,2.3,1.2,3,1.9c0.4,0.5,0.7,1.2,0.7,2.2c0.1,0.9,0.1,1.9,0.1,2.9h-0.7
					c-0.4-2.2-1.2-3.8-2.4-4.9c-1.2-1-2.7-1.6-4.6-1.6c-1.5,0-2.8,0.3-4.1,1c-1.2,0.7-2.2,1.8-3,3.4c-0.7,1.6-1.1,3.7-1.1,6.5
					c0,1.3,0.2,2.5,0.5,3.7c0.3,1.2,0.8,2.3,1.4,3.3c0.7,1,1.5,1.7,2.5,2.3c1,0.6,2.3,0.9,3.7,0.9c1.7,0,3.2-0.4,4.4-1.2
					c1.2-0.8,2.3-2,3.3-3.5l0.7,0.5c-1.1,2.1-2.4,3.6-4,4.4C255.3,65.7,253.5,66.1,251.5,66.1z"/>
				
					<linearGradient id="SVGID_00000173156405403262027980000017041242572527289787_" gradientUnits="userSpaceOnUse" x1="274.1456" y1="7.7302" x2="274.1456" y2="67.1418">
					<stop  offset="0" style="stop-color:#5A99A3"/>
					<stop  offset="0.1713" style="stop-color:#4C8E99"/>
					<stop  offset="0.4085" style="stop-color:#3F848F"/>
					<stop  offset="0.6327" style="stop-color:#3B818C"/>
					<stop  offset="1" style="stop-color:#3B818C"/>
				</linearGradient>
				<path style="fill:url(#SVGID_00000173156405403262027980000017041242572527289787_);" d="M274.1,66.1c-2.2,0-4-0.5-5.6-1.6
					c-1.6-1.1-2.8-2.5-3.7-4.3c-0.9-1.8-1.3-3.8-1.3-6c0-2.2,0.4-4.2,1.3-6c0.9-1.8,2.1-3.2,3.7-4.3c1.6-1.1,3.4-1.6,5.6-1.6
					c2.2,0,4,0.5,5.6,1.6c1.6,1.1,2.8,2.5,3.7,4.3c0.9,1.8,1.3,3.8,1.3,6c0,2.2-0.4,4.2-1.3,6c-0.9,1.8-2.1,3.2-3.7,4.3
					C278.2,65.6,276.3,66.1,274.1,66.1z M274.1,64.7c1.5,0,2.8-0.4,3.8-1.3c1.1-0.9,1.9-2.1,2.4-3.7c0.6-1.6,0.8-3.4,0.8-5.6
					c0-2.2-0.3-4-0.8-5.6c-0.6-1.6-1.4-2.8-2.4-3.7c-1.1-0.9-2.3-1.3-3.8-1.3c-1.5,0-2.7,0.4-3.8,1.3s-1.9,2.1-2.5,3.7
					c-0.6,1.6-0.8,3.4-0.8,5.6c0,2.2,0.3,4,0.8,5.6c0.6,1.6,1.4,2.8,2.5,3.7S272.7,64.7,274.1,64.7z"/>
				
					<linearGradient id="SVGID_00000141414019544159726440000002553702303471999386_" gradientUnits="userSpaceOnUse" x1="295.6973" y1="7.7302" x2="295.6973" y2="67.1418">
					<stop  offset="0" style="stop-color:#5A99A3"/>
					<stop  offset="0.1713" style="stop-color:#4C8E99"/>
					<stop  offset="0.4085" style="stop-color:#3F848F"/>
					<stop  offset="0.6327" style="stop-color:#3B818C"/>
					<stop  offset="1" style="stop-color:#3B818C"/>
				</linearGradient>
				<path style="fill:url(#SVGID_00000141414019544159726440000002553702303471999386_);" d="M296.3,65.8L288.4,47
					c-0.5-1.3-1.1-2.2-1.6-2.7c-0.5-0.5-1.2-0.8-2.2-0.9v-0.7c0.1,0,0.3,0,0.5,0c0.3,0,0.5,0,0.6,0c0.6,0,1.2,0.1,1.9,0.3
					c0.7,0.2,1.4,0.6,2.1,1.2c0.7,0.6,1.3,1.6,1.9,2.9l5.8,13.7l7.5-17.7h1.6l-9.7,22.8H296.3z"/>
				
					<linearGradient id="SVGID_00000100344278962099615010000007849302171435281293_" gradientUnits="userSpaceOnUse" x1="317.2327" y1="7.7302" x2="317.2327" y2="67.1418">
					<stop  offset="0" style="stop-color:#5A99A3"/>
					<stop  offset="0.1713" style="stop-color:#4C8E99"/>
					<stop  offset="0.4085" style="stop-color:#3F848F"/>
					<stop  offset="0.6327" style="stop-color:#3B818C"/>
					<stop  offset="1" style="stop-color:#3B818C"/>
				</linearGradient>
				<path style="fill:url(#SVGID_00000100344278962099615010000007849302171435281293_);" d="M311,65.4V47.1c0-1-0.1-1.8-0.4-2.5
					c-0.3-0.6-0.9-0.9-2-0.9H308V43h14.5c0.8,0,1.4,0.1,1.8,0.4c0.4,0.3,0.7,0.6,0.8,1c0.2,0.4,0.2,0.9,0.2,1.3v2.5h-0.7
					c0-1.4-0.4-2.3-1.1-3c-0.7-0.6-1.8-0.9-3.1-0.9h-6.3v8.8h9.2v1.4h-9.2v9.5h5.9c1.5,0,2.8-0.3,3.7-0.8c0.9-0.6,1.6-1.5,2.1-2.9
					l0.7,0.2l-1.2,3.2c-0.2,0.5-0.5,0.9-0.9,1.2c-0.4,0.3-1,0.5-1.6,0.5H311z"/>
			</g>
		</g>
	</g>
</g>
<g>
	<defs>
		<path id="SVGID_00000074417692884417461030000007487720778121074569_" d="M1344.5,681.3c-19.4,36.4-25.9,79.7-36.7,115.4H1541
			V575.9C1454.2,594.9,1376.6,621,1344.5,681.3"/>
	</defs>
	<clipPath id="SVGID_00000003783996616496988550000012920052197500127897_">
		<use xlink:href="#SVGID_00000074417692884417461030000007487720778121074569_"  style="overflow:visible;"/>
	</clipPath>
	
		<linearGradient id="SVGID_00000131328729671270093060000012405730292865959580_" gradientUnits="userSpaceOnUse" x1="-741.989" y1="538.0709" x2="-740.989" y2="538.0709" gradientTransform="matrix(248.9554 137.7898 137.7898 -248.9554 111927.0938 236836.9375)">
		<stop  offset="0" style="stop-color:#5A99A3"/>
		<stop  offset="0.1713" style="stop-color:#4C8E99"/>
		<stop  offset="0.4085" style="stop-color:#3F848F"/>
		<stop  offset="0.6327" style="stop-color:#3B818C"/>
		<stop  offset="1" style="stop-color:#3B818C"/>
	</linearGradient>
	
		<polygon style="clip-path:url(#SVGID_00000003783996616496988550000012920052197500127897_);fill:url(#SVGID_00000131328729671270093060000012405730292865959580_);" points="
		1362.4,477.1 1634.5,627.7 1486.3,895.6 1214.2,744.9 	"/>
</g>
<g>
	<defs>
		<path id="SVGID_00000067194572710906565750000003765930409402483871_" d="M-439.9,99.5c-19.4,36.4-25.9,79.7-36.7,115.4h233.2
			V-5.9C-330.1,13.1-407.7,39.2-439.9,99.5"/>
	</defs>
	<clipPath id="SVGID_00000109738296331213493080000016666213388644662421_">
		<use xlink:href="#SVGID_00000067194572710906565750000003765930409402483871_"  style="overflow:visible;"/>
	</clipPath>
	
		<linearGradient id="SVGID_00000147218463478027689400000011937353830078156971_" gradientUnits="userSpaceOnUse" x1="-748.4657" y1="536.8232" x2="-747.4657" y2="536.8232" gradientTransform="matrix(248.9554 137.7898 137.7898 -248.9554 111927.0938 236836.9375)">
		<stop  offset="0" style="stop-color:#5A99A3"/>
		<stop  offset="0.1713" style="stop-color:#4C8E99"/>
		<stop  offset="0.4085" style="stop-color:#3F848F"/>
		<stop  offset="0.6327" style="stop-color:#3B818C"/>
		<stop  offset="1" style="stop-color:#3B818C"/>
	</linearGradient>
	
		<polygon style="clip-path:url(#SVGID_00000109738296331213493080000016666213388644662421_);fill:url(#SVGID_00000147218463478027689400000011937353830078156971_);" points="
		-421.9,-104.7 -149.8,45.9 -298.1,313.7 -570.2,163.1 	"/>
</g>
</svg>
